<?xml version="1.0" standalone="no"?>
<!DOCTYPE svg PUBLIC "-//W3C//DTD SVG 20010904//EN"
 "http://www.w3.org/TR/2001/REC-SVG-20010904/DTD/svg10.dtd">
<svg version="1.0" xmlns="http://www.w3.org/2000/svg"
 width="2147.000000pt" height="2147.000000pt" viewBox="0 0 2147.000000 2147.000000"
 preserveAspectRatio="xMidYMid meet">
<metadata>
Created by potrace 1.14, written by Peter Selinger 2001-2017
</metadata>
<g transform="translate(0.000000,2147.000000) scale(0.100000,-0.100000)"
fill="#000000" stroke="none">
<path d="M11095 16899 c-22 -5 -89 -6 -150 -3 -222 12 -419 -27 -775 -154 -30
-11 -82 -28 -115 -37 -139 -40 -244 -104 -381 -234 -50 -47 -116 -109 -146
-136 -33 -31 -68 -75 -86 -110 -16 -33 -60 -109 -96 -168 -95 -155 -98 -165
-102 -293 -2 -61 -11 -145 -20 -185 -9 -41 -19 -138 -23 -216 -6 -138 -7 -142
-37 -180 -37 -47 -106 -82 -159 -82 -78 0 -281 38 -350 65 -62 24 -84 28 -185
28 -205 1 -401 -15 -580 -45 -195 -34 -292 -63 -395 -119 -38 -21 -99 -50
-135 -65 -113 -46 -163 -75 -255 -150 -50 -39 -115 -85 -145 -101 -144 -77
-139 -71 -215 -257 -31 -77 -86 -166 -138 -224 -47 -52 -55 -70 -72 -160 -8
-43 -31 -122 -50 -176 -71 -198 -75 -223 -85 -561 -13 -433 2 -539 133 -908
31 -89 60 -150 96 -203 29 -42 74 -122 102 -178 58 -121 88 -156 163 -190 32
-15 87 -56 134 -99 44 -41 112 -97 153 -124 81 -53 109 -78 156 -140 33 -43
63 -58 179 -93 90 -27 125 -61 132 -129 6 -67 -12 -98 -123 -212 -112 -116
-202 -252 -302 -457 -88 -181 -99 -217 -113 -383 -6 -69 -15 -156 -21 -195
-30 -207 -30 -207 -3 -312 22 -88 25 -118 25 -291 -1 -210 7 -261 60 -404 50
-135 86 -193 254 -397 64 -77 84 -95 144 -130 42 -25 90 -66 129 -110 76 -85
140 -119 304 -160 65 -16 145 -44 188 -66 66 -34 85 -39 160 -43 47 -2 151 1
231 6 140 10 149 11 218 47 64 33 88 39 192 51 124 14 176 31 251 82 24 16 79
47 123 69 91 45 242 132 342 198 37 25 118 70 179 100 66 32 128 71 153 96 66
63 127 73 150 22 6 -14 18 -71 27 -126 12 -77 24 -116 47 -157 31 -54 32 -57
33 -190 0 -114 4 -143 22 -187 26 -62 48 -151 56 -219 11 -102 36 -205 76
-324 27 -80 46 -159 56 -233 16 -129 41 -205 96 -299 22 -37 46 -95 54 -130
17 -75 51 -186 65 -210 5 -10 9 -23 9 -29 0 -7 20 -51 44 -99 24 -48 54 -121
66 -161 34 -113 51 -148 102 -222 27 -37 48 -69 48 -71 0 -2 20 -46 44 -97 24
-52 60 -130 80 -173 20 -44 54 -102 75 -130 85 -113 127 -197 144 -288 12 -67
30 -115 81 -218 36 -72 80 -152 99 -178 80 -110 111 -159 164 -255 30 -56 63
-111 72 -122 10 -11 33 -46 52 -78 19 -32 58 -84 88 -115 30 -31 74 -87 98
-124 24 -37 67 -94 97 -125 65 -72 99 -111 168 -193 36 -43 73 -75 110 -95 62
-33 84 -57 113 -125 28 -68 60 -106 126 -151 34 -23 76 -57 94 -78 18 -20 71
-56 116 -80 46 -24 112 -65 145 -92 34 -26 84 -54 112 -63 67 -19 89 -31 143
-81 43 -38 91 -59 159 -72 173 -32 279 -57 307 -73 42 -24 117 -50 144 -50 18
0 33 7 41 20 7 11 18 20 25 20 7 0 13 4 13 9 0 9 86 46 135 57 70 16 115 47
216 145 118 116 146 156 155 221 8 58 -14 106 -72 157 -51 44 -57 78 -25 137
15 27 17 43 10 67 -12 43 -106 130 -182 168 -34 17 -97 58 -139 90 -42 33
-123 84 -180 114 -96 52 -114 67 -258 214 -116 119 -169 166 -210 186 -77 38
-133 79 -216 155 -125 114 -191 171 -236 199 -24 15 -52 40 -62 56 -33 50 -86
108 -146 160 -47 41 -83 91 -104 144 -10 25 -35 74 -56 110 -73 126 -90 160
-113 224 -13 35 -44 91 -70 123 -69 89 -171 276 -250 460 -31 73 -84 159 -206
334 -21 30 -50 87 -65 125 -15 39 -42 95 -60 125 -19 30 -50 102 -71 160 -20
58 -53 132 -73 164 -50 84 -82 152 -82 178 -1 32 -40 125 -76 178 -17 25 -41
74 -54 110 -13 36 -46 105 -73 155 -28 49 -69 142 -92 205 -24 63 -55 136 -69
162 -18 31 -31 78 -41 142 -16 108 -26 130 -87 207 -102 127 -122 166 -188
378 -30 95 -32 115 -32 231 1 174 15 242 59 280 59 52 119 38 257 -60 27 -19
70 -52 95 -74 64 -55 117 -74 223 -82 91 -7 121 -15 261 -68 157 -60 349 -78
822 -78 91 1 125 5 195 27 135 43 179 54 280 75 100 21 285 89 335 124 16 11
57 50 92 87 34 36 115 101 179 145 168 114 276 236 383 432 27 50 70 121 95
157 58 84 87 151 127 301 42 158 44 265 6 375 -20 57 -28 102 -30 176 -4 82
-11 118 -41 206 -21 59 -42 135 -47 170 -15 94 -75 260 -135 373 -63 118 -70
169 -30 209 24 23 44 31 166 60 36 9 94 30 130 47 36 17 101 36 145 43 97 16
116 23 187 69 31 19 78 41 104 47 27 7 61 17 76 24 24 10 233 182 298 245 79
77 195 208 228 258 20 31 66 95 101 141 79 105 92 137 120 281 13 63 34 160
47 215 28 119 31 217 9 394 -9 68 -17 127 -19 130 -13 21 -23 192 -12 209 3 5
2 12 -2 14 -20 7 -81 108 -103 168 -24 69 -29 154 -10 203 7 18 7 27 0 27 -6
0 -8 4 -5 9 8 12 -29 57 -62 74 -68 36 -78 43 -75 53 9 28 -70 84 -162 115
-51 18 -56 21 -134 100 -36 36 -91 82 -121 102 -30 19 -80 57 -110 83 -181
159 -223 175 -545 202 -216 17 -529 21 -865 9 -153 -6 -218 -11 -382 -32 -21
-3 -62 -16 -92 -30 -116 -53 -154 -23 -182 143 -11 65 -25 104 -53 152 -44 76
-53 98 -81 205 -12 43 -43 122 -69 175 -27 52 -54 113 -61 135 -26 82 -157
301 -207 346 -21 19 -60 62 -88 95 -27 32 -54 64 -60 69 -19 20 -93 75 -99 75
-8 0 -100 68 -132 96 -76 69 -318 168 -524 214 -53 11 -159 11 -215 -1z m64
-1326 c52 -25 128 -54 170 -64 98 -24 149 -46 186 -79 28 -26 131 -89 165
-102 8 -3 65 -42 125 -88 61 -45 115 -85 121 -88 6 -4 21 -21 34 -39 20 -28
22 -35 10 -62 -20 -50 -97 -58 -193 -22 -54 21 -222 59 -287 66 -37 3 -105 1
-155 -6 -50 -7 -142 -13 -205 -13 -112 -1 -117 -2 -185 -37 -39 -20 -127 -54
-195 -74 -69 -21 -147 -48 -173 -62 -27 -13 -99 -42 -160 -65 -117 -42 -152
-63 -227 -133 -29 -27 -74 -54 -125 -75 -44 -18 -86 -37 -93 -42 -6 -6 -37
-46 -68 -90 -67 -96 -156 -161 -208 -152 -17 3 -32 7 -35 9 -9 9 -1 155 14
234 23 131 30 147 164 378 92 156 125 194 206 232 34 16 91 54 126 83 87 72
110 87 214 143 50 26 95 51 100 56 63 47 205 101 320 120 207 35 228 33 354
-28z m2076 -864 c82 2 330 -50 394 -84 34 -17 99 -80 136 -130 42 -58 161
-172 209 -202 180 -112 187 -120 229 -239 13 -39 36 -88 49 -110 37 -60 58
-120 79 -227 24 -124 24 -193 -2 -287 -11 -41 -28 -114 -38 -161 -11 -47 -26
-99 -34 -116 -16 -31 -145 -154 -237 -226 -30 -23 -83 -80 -117 -126 -64 -85
-86 -105 -185 -169 -31 -20 -104 -82 -160 -138 -120 -116 -159 -135 -323 -159
-185 -26 -324 -92 -341 -161 -12 -46 4 -127 44 -229 22 -55 44 -116 50 -135 6
-19 29 -93 51 -165 22 -71 47 -164 55 -205 20 -94 20 -235 2 -309 -8 -31 -17
-74 -21 -96 -20 -135 -28 -174 -45 -212 -19 -44 -313 -355 -400 -424 -148
-117 -278 -188 -392 -213 -241 -53 -262 -55 -738 -61 -522 -7 -504 -9 -650 77
-143 85 -159 112 -83 145 28 12 76 17 183 18 153 2 145 1 300 68 28 12 115 79
140 107 3 4 81 58 174 121 93 63 181 127 195 144 59 67 111 111 204 172 111
74 270 225 340 325 26 36 74 126 107 200 33 73 74 156 92 183 29 47 63 106
144 251 19 34 52 108 73 165 21 57 50 133 64 169 50 131 105 371 127 547 11
95 25 198 31 230 11 55 5 496 -7 633 -6 66 -28 154 -54 221 -11 27 -29 91 -41
141 -25 107 -37 133 -90 201 -22 27 -59 90 -84 140 -25 51 -56 112 -70 137
-29 52 -31 86 -7 117 21 27 90 53 146 54 22 0 75 7 116 14 52 10 113 12 200 8
69 -3 152 -5 185 -4z m-1579 -682 c32 -8 82 -36 136 -75 48 -34 119 -75 158
-91 40 -17 83 -40 96 -52 33 -31 66 -104 102 -224 16 -55 39 -123 50 -152 23
-57 23 -54 18 -308 -4 -189 -2 -179 -76 -448 -23 -83 -88 -259 -101 -271 -5
-6 -9 -16 -9 -23 0 -30 -52 -122 -95 -168 -26 -27 -64 -85 -86 -128 -25 -48
-63 -103 -102 -143 -77 -80 -76 -79 -110 -144 -19 -35 -68 -94 -135 -160 -59
-58 -126 -129 -150 -158 -40 -49 -141 -132 -159 -132 -5 0 -31 -20 -58 -45
-60 -54 -94 -65 -205 -65 -102 0 -237 -30 -400 -89 -139 -49 -180 -51 -292
-12 -75 26 -219 71 -323 99 -59 17 -151 78 -175 117 -11 18 -36 77 -55 130
-19 53 -45 118 -58 144 -67 133 -89 261 -68 387 16 89 76 342 101 419 10 33
26 105 34 160 29 182 51 226 118 228 83 2 99 -50 97 -320 -1 -208 11 -306 62
-476 20 -70 29 -81 232 -295 51 -53 106 -71 242 -76 132 -5 242 15 380 69 61
24 142 52 182 64 44 13 94 38 130 64 32 23 78 55 103 72 48 31 102 83 160 153
19 24 53 55 75 70 93 62 100 75 226 390 43 109 54 224 41 422 -11 146 -15 168
-41 223 -83 172 -185 219 -398 183 -91 -15 -131 -29 -224 -81 -25 -14 -75 -30
-110 -37 -35 -6 -78 -17 -95 -24 -39 -16 -267 -226 -282 -259 -38 -84 -172
-69 -172 20 0 46 115 222 209 320 67 70 81 92 116 178 49 119 138 245 224 313
187 151 258 190 369 204 42 6 100 14 127 20 111 22 130 23 191 7z m-2400 -58
c28 -7 54 -23 69 -41 45 -53 30 -105 -63 -213 -75 -89 -95 -128 -130 -257 -27
-99 -33 -110 -144 -268 -64 -91 -122 -185 -130 -209 -8 -24 -16 -75 -17 -115
-1 -39 -8 -111 -16 -161 -15 -90 -21 -117 -68 -319 -41 -174 -52 -326 -34
-460 9 -61 18 -145 21 -186 5 -69 30 -172 75 -310 10 -30 24 -73 30 -95 25
-85 68 -164 148 -272 54 -71 95 -139 115 -189 35 -86 28 -77 272 -309 87 -82
173 -158 192 -167 76 -40 362 -160 411 -173 36 -10 105 -14 216 -13 142 2 167
0 202 -18 75 -36 54 -87 -59 -145 -34 -17 -97 -55 -141 -84 -44 -29 -108 -70
-142 -91 -34 -22 -129 -85 -212 -141 -83 -57 -177 -113 -208 -126 -32 -13 -87
-42 -123 -65 -206 -131 -390 -195 -702 -242 -111 -16 -221 -30 -244 -30 -51 0
-121 28 -184 75 -26 19 -51 35 -54 35 -4 0 -12 4 -19 10 -7 5 -43 31 -81 56
-39 26 -89 65 -113 87 -57 53 -100 81 -148 97 -53 18 -123 91 -164 176 -19 38
-44 85 -56 104 -53 86 -60 128 -60 380 0 295 3 308 133 614 12 28 35 51 88 87
40 27 96 77 126 111 91 107 277 294 333 334 68 50 97 92 103 154 9 98 -44 163
-264 322 -54 39 -107 103 -142 173 -25 50 -45 68 -113 103 -68 34 -90 67 -134
201 -19 58 -53 159 -76 224 -36 104 -42 134 -48 240 -10 183 -8 194 92 377 25
47 61 123 80 170 19 47 40 96 47 110 15 31 196 190 265 232 59 36 307 157 350
170 35 10 247 28 415 34 63 2 144 10 180 18 82 18 74 18 126 5z"/>
<path d="M12570 16025 c0 -44 15 -78 62 -141 31 -42 42 -70 62 -160 14 -60 28
-129 31 -153 3 -25 12 -55 20 -68 15 -22 66 -38 102 -31 23 4 29 52 10 82 -8
12 -27 67 -42 121 -29 108 -47 144 -94 189 -17 17 -31 35 -31 41 0 19 -59 129
-77 143 -29 21 -43 14 -43 -23z"/>
<path d="M15582 14228 c-6 -7 -13 -31 -17 -53 -3 -22 -8 -51 -11 -65 -3 -19
-2 -21 5 -10 9 13 13 11 31 -8 11 -12 25 -22 30 -22 23 0 59 -52 64 -92 15
-119 16 -239 4 -369 -7 -79 -11 -219 -9 -310 4 -200 -7 -253 -70 -326 -23 -26
-61 -88 -84 -138 -53 -113 -213 -333 -320 -440 -95 -95 -198 -165 -318 -217
-77 -33 -244 -130 -332 -192 -26 -17 -49 -21 -162 -26 -122 -5 -133 -7 -152
-28 -54 -63 -56 -293 -3 -321 25 -12 39 -4 73 45 36 52 47 59 214 119 72 26
157 62 190 80 33 17 97 48 143 68 45 19 112 57 150 83 37 26 94 65 127 87 215
142 321 249 440 442 27 44 64 99 82 122 19 24 48 73 64 110 17 38 44 97 61
133 64 137 110 352 109 514 -1 50 -7 166 -15 258 -13 153 -17 172 -49 240 -19
40 -57 99 -85 130 -29 33 -57 77 -66 106 -25 76 -68 111 -94 80z"/>
<path d="M14296 11363 c-11 -99 18 -193 61 -193 53 0 21 240 -33 248 -20 3
-23 -3 -28 -55z"/>
<path d="M14452 10899 c-10 -16 -20 -67 -36 -194 -3 -22 -8 -112 -12 -200 -7
-180 -15 -206 -97 -320 -28 -40 -56 -98 -81 -170 -20 -61 -55 -138 -77 -171
-40 -61 -152 -181 -324 -344 -50 -47 -117 -115 -150 -150 -42 -46 -82 -77
-135 -104 -41 -21 -97 -56 -126 -78 -41 -31 -75 -45 -163 -68 -60 -16 -129
-39 -152 -51 -105 -53 -226 -88 -376 -109 -77 -10 -342 -12 -877 -7 l-199 2
-29 55 c-36 71 -60 90 -112 90 -54 0 -81 -19 -73 -51 9 -33 60 -65 137 -85 46
-12 75 -26 99 -50 34 -33 116 -67 191 -79 57 -9 274 -26 440 -35 85 -5 210
-12 277 -16 93 -5 147 -3 230 10 183 29 215 37 313 76 52 21 147 54 211 74
164 50 254 95 347 170 44 36 111 85 149 110 101 66 125 86 173 141 24 28 86
96 140 152 110 116 216 268 253 363 29 75 111 401 128 510 17 113 8 443 -15
497 -20 48 -38 59 -54 32z"/>
<path d="M11113 9112 c-19 -12 -25 -53 -15 -96 37 -147 47 -202 51 -281 2 -43
36 -96 57 -88 15 5 16 20 10 129 -5 81 -3 138 4 165 19 69 16 96 -14 124 -36
33 -80 55 -93 47z"/>
<path d="M11288 8524 c-12 -12 17 -190 33 -200 17 -10 39 17 39 47 0 90 -43
182 -72 153z"/>
<path d="M9915 8503 c-61 -18 -90 -38 -181 -122 -38 -36 -92 -77 -120 -91 -27
-14 -107 -57 -179 -96 -71 -40 -169 -86 -217 -103 -48 -16 -107 -40 -130 -51
-24 -12 -56 -26 -73 -31 -68 -22 -238 -48 -350 -54 -180 -9 -367 -26 -392 -36
-13 -5 -23 -16 -23 -25 0 -30 82 -100 145 -124 76 -28 211 -38 297 -20 131 26
306 83 377 122 61 33 94 43 190 59 81 13 133 28 171 47 30 16 104 54 164 85
59 32 130 73 156 92 26 19 87 53 135 75 99 45 138 75 178 133 30 45 36 97 12
121 -15 14 -78 37 -100 35 -5 0 -32 -7 -60 -16z"/>
<path d="M11457 8064 c-10 -10 -9 -26 1 -20 4 2 6 -11 4 -29 -4 -35 13 -68 37
-73 11 -2 13 7 8 44 -5 45 -35 92 -50 78z"/>
<path d="M7983 8027 c-16 -26 76 -37 96 -13 10 11 8 16 -7 20 -26 9 -82 4 -89
-7z"/>
<path d="M11570 7790 c-20 -37 -5 -169 21 -186 6 -3 21 -3 35 0 22 6 24 11 24
62 0 88 -54 172 -80 124z"/>
<path d="M8632 7569 c-77 -27 -93 -29 -205 -27 -225 4 -270 1 -352 -21 -44
-12 -127 -26 -186 -31 -117 -10 -136 -16 -229 -76 -180 -115 -267 -156 -403
-189 -73 -18 -156 -43 -186 -54 -73 -29 -176 -98 -192 -129 -12 -22 -11 -26 9
-42 44 -36 112 -41 577 -40 454 2 824 -11 925 -30 30 -6 129 -41 220 -79 91
-38 182 -74 202 -81 89 -28 322 -154 411 -223 21 -16 61 -64 89 -106 72 -108
150 -184 248 -243 47 -29 110 -71 140 -94 111 -85 145 -96 330 -107 299 -18
305 -17 440 110 62 58 80 82 90 118 18 63 8 116 -39 206 -32 61 -44 97 -52
161 -15 117 -22 134 -110 282 -112 185 -235 303 -391 375 -75 34 -93 48 -133
99 -66 85 -167 152 -305 202 -62 23 -78 24 -357 26 -166 2 -308 7 -330 13 -61
17 -123 12 -211 -20z"/>
<path d="M11734 7370 c0 -11 6 -22 13 -24 14 -6 16 4 7 28 -9 22 -20 20 -20
-4z"/>
<path d="M6905 6242 c-48 -10 -73 -61 -56 -118 5 -17 33 -68 63 -115 30 -46
78 -127 105 -179 28 -52 73 -138 102 -191 28 -53 65 -136 81 -184 16 -48 45
-115 64 -149 41 -72 126 -205 147 -226 8 -8 31 -35 52 -58 21 -24 77 -78 125
-121 48 -43 103 -102 122 -130 34 -50 94 -91 133 -91 24 0 84 -26 127 -54 69
-45 95 -60 107 -62 7 -1 20 -9 29 -18 8 -9 25 -17 37 -17 12 -1 27 -2 32 -4 6
-1 18 -3 28 -3 9 -1 17 -9 17 -17 0 -12 -7 -14 -27 -9 -16 4 -29 11 -31 16 -5
11 -49 10 -57 -1 -13 -22 31 -83 85 -118 30 -20 75 -54 100 -74 69 -57 116
-77 259 -109 73 -17 163 -43 199 -59 37 -16 83 -34 102 -40 85 -27 578 -42
705 -21 33 5 94 18 135 30 41 11 143 36 225 56 83 20 171 46 197 58 63 28 230
177 331 295 45 53 103 118 130 145 65 67 108 135 173 270 76 159 103 287 116
551 17 350 19 334 -36 465 -27 63 -52 125 -56 136 -12 32 -45 36 -70 9 -19
-20 -21 -34 -21 -145 1 -117 -7 -155 -33 -172 -18 -13 -72 -9 -102 7 -38 19
-99 19 -132 -1 -15 -9 -42 -36 -61 -61 -19 -24 -62 -65 -95 -90 -70 -53 -80
-64 -142 -155 -24 -37 -76 -100 -113 -140 -65 -69 -80 -78 -262 -171 -188 -95
-198 -99 -314 -118 -101 -17 -146 -19 -289 -14 -242 9 -314 23 -471 97 -71 33
-160 70 -196 83 -99 34 -121 48 -206 132 -98 97 -289 212 -426 256 -84 27 -95
34 -156 97 -36 37 -102 92 -146 122 -44 30 -123 83 -175 119 -52 35 -134 103
-182 150 -47 48 -106 96 -130 107 -50 25 -115 40 -143 34z m3548 -1376 c-3
-49 -29 -84 -164 -217 -178 -178 -242 -216 -446 -270 -78 -20 -132 -41 -170
-66 -98 -63 -149 -75 -323 -80 -85 -3 -242 -1 -349 4 -172 9 -195 12 -207 28
-18 24 -15 34 20 59 24 18 47 21 199 27 168 5 177 7 387 62 176 46 237 66 340
116 69 33 148 65 175 72 126 31 158 43 195 72 239 193 305 240 329 235 12 -3
15 -14 14 -42z m-1953 -428 c55 -10 80 -23 80 -39 0 -35 -168 -26 -218 11 -50
37 -42 50 26 44 31 -3 82 -10 112 -16z"/>
<path d="M14606 3548 c-8 -13 -27 -57 -42 -98 -29 -80 -44 -106 -109 -185 -57
-71 -114 -121 -159 -142 -22 -10 -62 -30 -90 -45 -141 -76 -212 -105 -286
-114 -8 -1 -46 -9 -83 -19 -64 -16 -84 -16 -172 0 -5 1 -16 3 -22 3 -7 1 -24
19 -37 40 -42 67 -64 75 -221 84 -210 11 -209 12 -184 -18 36 -44 122 -80 291
-124 64 -17 95 -31 118 -53 16 -16 30 -35 30 -41 0 -23 43 -37 123 -41 45 -2
137 -7 204 -11 141 -8 171 0 203 52 18 33 103 84 138 84 26 0 133 50 166 77
19 15 70 74 114 130 91 117 102 148 102 291 0 91 -10 121 -50 142 -16 8 -22 6
-34 -12z"/>
</g>
</svg>
